<mxfile host="app.diagrams.net" modified="2024-02-01T10:29:58.608Z" agent="Mozilla/5.0 (Macintosh; Intel Mac OS X 10_15_7) AppleWebKit/537.36 (KHTML, like Gecko) Chrome/120.0.0.0 Safari/537.36" etag="qE8mJY3IzJTcnQZqn2i1" version="23.1.0" type="device">
  <diagram name="Page-1" id="8k4pCwR-GB4DaIrTq8DU">
    <mxGraphModel dx="752" dy="549" grid="1" gridSize="10" guides="1" tooltips="1" connect="1" arrows="1" fold="1" page="1" pageScale="1" pageWidth="850" pageHeight="1100" math="0" shadow="0">
      <root>
        <mxCell id="0" />
        <mxCell id="1" parent="0" />
        <mxCell id="LT5GrJYGNcFnyM6Y6z9e-1" value="" style="sketch=0;points=[[0.015,0.015,0],[0.985,0.015,0],[0.985,0.985,0],[0.015,0.985,0],[0.25,0,0],[0.5,0,0],[0.75,0,0],[1,0.25,0],[1,0.5,0],[1,0.75,0],[0.75,1,0],[0.5,1,0],[0.25,1,0],[0,0.75,0],[0,0.5,0],[0,0.25,0]];verticalLabelPosition=bottom;html=1;verticalAlign=top;aspect=fixed;align=center;pointerEvents=1;shape=mxgraph.cisco19.rect;prIcon=load_balancer;fillColor=#FAFAFA;strokeColor=#005073;" vertex="1" parent="1">
          <mxGeometry x="350" y="110" width="64" height="50" as="geometry" />
        </mxCell>
        <mxCell id="LT5GrJYGNcFnyM6Y6z9e-7" value="" style="group" vertex="1" connectable="0" parent="1">
          <mxGeometry x="460" y="30" width="140" height="200" as="geometry" />
        </mxCell>
        <mxCell id="LT5GrJYGNcFnyM6Y6z9e-2" value="" style="shape=cylinder3;whiteSpace=wrap;html=1;boundedLbl=1;backgroundOutline=1;size=15;movable=1;resizable=1;rotatable=1;deletable=1;editable=1;locked=0;connectable=1;" vertex="1" parent="LT5GrJYGNcFnyM6Y6z9e-7">
          <mxGeometry y="50" width="60" height="80" as="geometry" />
        </mxCell>
        <mxCell id="LT5GrJYGNcFnyM6Y6z9e-4" value="" style="shape=cylinder3;whiteSpace=wrap;html=1;boundedLbl=1;backgroundOutline=1;size=15;movable=1;resizable=1;rotatable=1;deletable=1;editable=1;locked=0;connectable=1;" vertex="1" parent="LT5GrJYGNcFnyM6Y6z9e-7">
          <mxGeometry x="80" y="50" width="60" height="80" as="geometry" />
        </mxCell>
        <mxCell id="LT5GrJYGNcFnyM6Y6z9e-3" value="" style="shape=cylinder3;whiteSpace=wrap;html=1;boundedLbl=1;backgroundOutline=1;size=15;movable=1;resizable=1;rotatable=1;deletable=1;editable=1;locked=0;connectable=1;" vertex="1" parent="LT5GrJYGNcFnyM6Y6z9e-7">
          <mxGeometry x="40" y="90" width="60" height="80" as="geometry" />
        </mxCell>
        <mxCell id="LT5GrJYGNcFnyM6Y6z9e-5" value="" style="shape=image;imageAspect=0;aspect=fixed;verticalLabelPosition=bottom;verticalAlign=top;image=https://storage.googleapis.com/thegym-public/cockroachlabs-svgrepo-com.svg;movable=1;resizable=1;rotatable=1;deletable=1;editable=1;locked=0;connectable=1;" vertex="1" parent="LT5GrJYGNcFnyM6Y6z9e-7">
          <mxGeometry x="40" width="60" height="60" as="geometry" />
        </mxCell>
        <mxCell id="LT5GrJYGNcFnyM6Y6z9e-6" value="&lt;b&gt;&lt;font style=&quot;font-size: 17px;&quot;&gt;EMEA&lt;/font&gt;&lt;/b&gt;" style="text;html=1;strokeColor=none;fillColor=none;align=center;verticalAlign=middle;whiteSpace=wrap;rounded=0;movable=1;resizable=1;rotatable=1;deletable=1;editable=1;locked=0;connectable=1;" vertex="1" parent="LT5GrJYGNcFnyM6Y6z9e-7">
          <mxGeometry x="40" y="170" width="60" height="30" as="geometry" />
        </mxCell>
        <mxCell id="LT5GrJYGNcFnyM6Y6z9e-8" value="" style="group" vertex="1" connectable="0" parent="1">
          <mxGeometry x="460" y="260" width="140" height="200" as="geometry" />
        </mxCell>
        <mxCell id="LT5GrJYGNcFnyM6Y6z9e-9" value="" style="shape=cylinder3;whiteSpace=wrap;html=1;boundedLbl=1;backgroundOutline=1;size=15;movable=1;resizable=1;rotatable=1;deletable=1;editable=1;locked=0;connectable=1;" vertex="1" parent="LT5GrJYGNcFnyM6Y6z9e-8">
          <mxGeometry y="50" width="60" height="80" as="geometry" />
        </mxCell>
        <mxCell id="LT5GrJYGNcFnyM6Y6z9e-10" value="" style="shape=cylinder3;whiteSpace=wrap;html=1;boundedLbl=1;backgroundOutline=1;size=15;movable=1;resizable=1;rotatable=1;deletable=1;editable=1;locked=0;connectable=1;" vertex="1" parent="LT5GrJYGNcFnyM6Y6z9e-8">
          <mxGeometry x="80" y="50" width="60" height="80" as="geometry" />
        </mxCell>
        <mxCell id="LT5GrJYGNcFnyM6Y6z9e-11" value="" style="shape=cylinder3;whiteSpace=wrap;html=1;boundedLbl=1;backgroundOutline=1;size=15;movable=1;resizable=1;rotatable=1;deletable=1;editable=1;locked=0;connectable=1;" vertex="1" parent="LT5GrJYGNcFnyM6Y6z9e-8">
          <mxGeometry x="40" y="90" width="60" height="80" as="geometry" />
        </mxCell>
        <mxCell id="LT5GrJYGNcFnyM6Y6z9e-12" value="" style="shape=image;imageAspect=0;aspect=fixed;verticalLabelPosition=bottom;verticalAlign=top;image=https://storage.googleapis.com/thegym-public/cockroachlabs-svgrepo-com.svg;movable=1;resizable=1;rotatable=1;deletable=1;editable=1;locked=0;connectable=1;" vertex="1" parent="LT5GrJYGNcFnyM6Y6z9e-8">
          <mxGeometry x="40" width="60" height="60" as="geometry" />
        </mxCell>
        <mxCell id="LT5GrJYGNcFnyM6Y6z9e-13" value="&lt;b&gt;&lt;font style=&quot;font-size: 17px;&quot;&gt;AMERICAS&lt;br&gt;&lt;/font&gt;&lt;/b&gt;" style="text;html=1;strokeColor=none;fillColor=none;align=center;verticalAlign=middle;whiteSpace=wrap;rounded=0;movable=1;resizable=1;rotatable=1;deletable=1;editable=1;locked=0;connectable=1;" vertex="1" parent="LT5GrJYGNcFnyM6Y6z9e-8">
          <mxGeometry x="40" y="170" width="60" height="30" as="geometry" />
        </mxCell>
        <mxCell id="LT5GrJYGNcFnyM6Y6z9e-14" value="" style="group" vertex="1" connectable="0" parent="1">
          <mxGeometry x="470" y="510" width="140" height="200" as="geometry" />
        </mxCell>
        <mxCell id="LT5GrJYGNcFnyM6Y6z9e-15" value="" style="shape=cylinder3;whiteSpace=wrap;html=1;boundedLbl=1;backgroundOutline=1;size=15;movable=1;resizable=1;rotatable=1;deletable=1;editable=1;locked=0;connectable=1;" vertex="1" parent="LT5GrJYGNcFnyM6Y6z9e-14">
          <mxGeometry y="50" width="60" height="80" as="geometry" />
        </mxCell>
        <mxCell id="LT5GrJYGNcFnyM6Y6z9e-16" value="" style="shape=cylinder3;whiteSpace=wrap;html=1;boundedLbl=1;backgroundOutline=1;size=15;movable=1;resizable=1;rotatable=1;deletable=1;editable=1;locked=0;connectable=1;" vertex="1" parent="LT5GrJYGNcFnyM6Y6z9e-14">
          <mxGeometry x="80" y="50" width="60" height="80" as="geometry" />
        </mxCell>
        <mxCell id="LT5GrJYGNcFnyM6Y6z9e-17" value="" style="shape=cylinder3;whiteSpace=wrap;html=1;boundedLbl=1;backgroundOutline=1;size=15;movable=1;resizable=1;rotatable=1;deletable=1;editable=1;locked=0;connectable=1;" vertex="1" parent="LT5GrJYGNcFnyM6Y6z9e-14">
          <mxGeometry x="40" y="90" width="60" height="80" as="geometry" />
        </mxCell>
        <mxCell id="LT5GrJYGNcFnyM6Y6z9e-18" value="" style="shape=image;imageAspect=0;aspect=fixed;verticalLabelPosition=bottom;verticalAlign=top;image=https://storage.googleapis.com/thegym-public/cockroachlabs-svgrepo-com.svg;movable=1;resizable=1;rotatable=1;deletable=1;editable=1;locked=0;connectable=1;" vertex="1" parent="LT5GrJYGNcFnyM6Y6z9e-14">
          <mxGeometry x="40" width="60" height="60" as="geometry" />
        </mxCell>
        <mxCell id="LT5GrJYGNcFnyM6Y6z9e-19" value="&lt;b&gt;&lt;font style=&quot;font-size: 17px;&quot;&gt;APAC&lt;br&gt;&lt;/font&gt;&lt;/b&gt;" style="text;html=1;strokeColor=none;fillColor=none;align=center;verticalAlign=middle;whiteSpace=wrap;rounded=0;movable=1;resizable=1;rotatable=1;deletable=1;editable=1;locked=0;connectable=1;" vertex="1" parent="LT5GrJYGNcFnyM6Y6z9e-14">
          <mxGeometry x="40" y="170" width="60" height="30" as="geometry" />
        </mxCell>
        <mxCell id="LT5GrJYGNcFnyM6Y6z9e-26" value="" style="sketch=0;points=[[0.015,0.015,0],[0.985,0.015,0],[0.985,0.985,0],[0.015,0.985,0],[0.25,0,0],[0.5,0,0],[0.75,0,0],[1,0.25,0],[1,0.5,0],[1,0.75,0],[0.75,1,0],[0.5,1,0],[0.25,1,0],[0,0.75,0],[0,0.5,0],[0,0.25,0]];verticalLabelPosition=bottom;html=1;verticalAlign=top;aspect=fixed;align=center;pointerEvents=1;shape=mxgraph.cisco19.rect;prIcon=load_balancer;fillColor=#FAFAFA;strokeColor=#005073;" vertex="1" parent="1">
          <mxGeometry x="350" y="335" width="64" height="50" as="geometry" />
        </mxCell>
        <mxCell id="LT5GrJYGNcFnyM6Y6z9e-27" value="" style="sketch=0;points=[[0.015,0.015,0],[0.985,0.015,0],[0.985,0.985,0],[0.015,0.985,0],[0.25,0,0],[0.5,0,0],[0.75,0,0],[1,0.25,0],[1,0.5,0],[1,0.75,0],[0.75,1,0],[0.5,1,0],[0.25,1,0],[0,0.75,0],[0,0.5,0],[0,0.25,0]];verticalLabelPosition=bottom;html=1;verticalAlign=top;aspect=fixed;align=center;pointerEvents=1;shape=mxgraph.cisco19.rect;prIcon=load_balancer;fillColor=#FAFAFA;strokeColor=#005073;" vertex="1" parent="1">
          <mxGeometry x="360" y="585" width="64" height="50" as="geometry" />
        </mxCell>
        <mxCell id="LT5GrJYGNcFnyM6Y6z9e-28" value="" style="outlineConnect=0;dashed=0;verticalLabelPosition=bottom;verticalAlign=top;align=center;html=1;shape=mxgraph.aws3.android;fillColor=#8CC64F;gradientColor=none;" vertex="1" parent="1">
          <mxGeometry x="200" y="93" width="73.5" height="84" as="geometry" />
        </mxCell>
        <mxCell id="LT5GrJYGNcFnyM6Y6z9e-29" value="" style="outlineConnect=0;dashed=0;verticalLabelPosition=bottom;verticalAlign=top;align=center;html=1;shape=mxgraph.aws3.android;fillColor=#8CC64F;gradientColor=none;" vertex="1" parent="1">
          <mxGeometry x="210" y="320" width="73.5" height="84" as="geometry" />
        </mxCell>
        <mxCell id="LT5GrJYGNcFnyM6Y6z9e-30" value="" style="outlineConnect=0;dashed=0;verticalLabelPosition=bottom;verticalAlign=top;align=center;html=1;shape=mxgraph.aws3.android;fillColor=#8CC64F;gradientColor=none;" vertex="1" parent="1">
          <mxGeometry x="220" y="568" width="73.5" height="84" as="geometry" />
        </mxCell>
        <mxCell id="LT5GrJYGNcFnyM6Y6z9e-31" value="" style="sketch=0;points=[[0.015,0.015,0],[0.985,0.015,0],[0.985,0.985,0],[0.015,0.985,0],[0.25,0,0],[0.5,0,0],[0.75,0,0],[1,0.25,0],[1,0.5,0],[1,0.75,0],[0.75,1,0],[0.5,1,0],[0.25,1,0],[0,0.75,0],[0,0.5,0],[0,0.25,0]];verticalLabelPosition=bottom;html=1;verticalAlign=top;aspect=fixed;align=center;pointerEvents=1;shape=mxgraph.cisco19.rect;prIcon=load_balancer;fillColor=#FAFAFA;strokeColor=#005073;" vertex="1" parent="1">
          <mxGeometry x="60" y="330" width="64" height="50" as="geometry" />
        </mxCell>
      </root>
    </mxGraphModel>
  </diagram>
</mxfile>
